<svg width="48" height="48" viewBox="0 0 48 48" fill="none" xmlns="http://www.w3.org/2000/svg">
<path d="M0.429688 10.875V9.1875H25.7422V10.875H0.429688ZM0.429688 14.25V12.5625H25.7422V14.25H0.429688ZM0.429688 17.625V15.9375H25.7422V17.625H18.9922V48H17.3047V17.625H15.6172V48H13.9297V17.625H12.2422V48H10.5547V17.625H8.86719V48H7.17969V17.625H0.429688Z" fill="#FF0000"/>
<path d="M46.209 0.6875H47.7559L31.6191 26H30.0371L46.209 0.6875ZM43.0801 0.6875H44.627L28.4727 26H26.9258L43.0801 0.6875ZM39.9512 0.6875H41.5156L25.3613 26H23.7969L39.9512 0.6875ZM36.8223 0.6875H38.4043L22.2324 26H20.6855L36.8223 0.6875ZM29.0879 11.4277L28.3145 12.6582L20.6855 0.6875H22.2324L29.0879 11.4277ZM34.625 22.5371L35.3984 21.3066L38.4043 26H36.8223L34.625 22.5371ZM30.6523 8.98438L29.8789 10.1973L23.8145 0.6875H25.3613L30.6523 8.98438ZM36.1895 20.0762L36.9629 18.8633L41.5156 26H39.9688L36.1895 20.0762ZM32.2168 6.52344L31.4434 7.75391L26.9258 0.6875H28.4902L32.2168 6.52344ZM37.7363 17.6328L38.5273 16.4023L44.6445 26H43.0801L37.7363 17.6328ZM33.7812 4.08008L32.9902 5.31055L30.0371 0.6875H31.6191L33.7812 4.08008ZM39.3008 15.1895L40.0918 13.9766L47.7559 26H46.209L39.3008 15.1895Z" fill="#FDFDFD"/>
</svg>
