<svg width="171" height="74" viewBox="0 0 171 74" fill="none" xmlns="http://www.w3.org/2000/svg">
<path d="M8.15625 31.6016H9.84375V56H8.15625V31.6016ZM1.40625 23.9375V22.25H26.7188V23.9375H1.40625ZM1.40625 27.3125V25.625H26.7188V27.3125H1.40625ZM1.40625 30.6875V29H26.7188V30.6875H1.40625ZM18.2812 31.6016H19.9688V56H18.2812V31.6016ZM14.9062 31.6016H16.5938V56H14.9062V31.6016ZM11.5312 31.6016H13.2188V56H11.5312V31.6016Z" fill="#FF0000"/>
<path d="M38.8828 56H37.1953V22.25H38.8828V56ZM35.5078 56H33.8203V22.25H35.5078V56ZM32.1328 56H30.4453V22.25H32.1328V56ZM42.2578 47.5625H58.4062V49.25H42.2578V50.9375H58.4062V52.625H42.2578V54.3125H58.4062V56H40.5703V22.25H58.4062V23.9375H42.2578V25.625H58.4062V27.3125H42.2578V29H58.4062V30.6875H42.2578V34.8828H57.4688V36.5703H42.2578V38.2578H57.4688V39.9453H42.2578V41.6328H57.4688V43.3203H42.2578V47.5625ZM133.711 22.25H135.773L114.258 56H112.148L133.711 22.25ZM129.539 22.25H131.602L110.062 56H108L129.539 22.25ZM125.367 22.25H127.453L105.914 56H103.828L125.367 22.25ZM121.195 22.25H123.305L101.742 56H99.6797L121.195 22.25ZM110.883 36.5703L109.852 38.2109L99.6797 22.25H101.742L110.883 36.5703ZM118.266 51.3828L119.297 49.7422L123.305 56H121.195L118.266 51.3828ZM112.969 33.3125L111.938 34.9297L103.852 22.25H105.914L112.969 33.3125ZM120.352 48.1016L121.383 46.4844L127.453 56H125.391L120.352 48.1016ZM115.055 30.0312L114.023 31.6719L108 22.25H110.086L115.055 30.0312ZM122.414 44.8438L123.469 43.2031L131.625 56H129.539L122.414 44.8438ZM117.141 26.7734L116.086 28.4141L112.148 22.25H114.258L117.141 26.7734ZM124.5 41.5859L125.555 39.9688L135.773 56H133.711L124.5 41.5859Z" fill="white"/>
<path d="M97.9219 22.25L88.5234 39.2656L97.7812 56H95.9062L86.6484 39.2656L96.0469 22.25H97.9219ZM94.1484 22.25L84.75 39.2656L94.0078 56H92.1328L82.875 39.2656L92.2734 22.25H94.1484ZM90.375 22.25L80.9766 39.2656L90.2344 56H88.3594L79.1016 39.2656L88.5 22.25H90.375ZM86.6016 22.25L77.1797 39.2656L86.4609 56H84.5859L75.3047 39.2656L84.7266 22.25H86.6016ZM72.5859 22.25V56H74.2734V22.25H72.5859ZM69.2109 22.25V56H70.8984V22.25H69.2109ZM65.8359 22.25V56H67.5234V22.25H65.8359ZM62.4609 22.25V56H64.1484V22.25H62.4609Z" fill="#2400FF"/>
<path d="M169.219 47.5625V49.25H156.117L157.195 47.5625H169.219ZM169.219 50.9375V52.625H154.031L155.086 50.9375H169.219ZM169.219 54.3125V56H152.156L153.188 54.3125H169.219ZM138.633 30.7109V29.0234H151.758L150.703 30.7109H138.633ZM138.633 27.3359V25.6484H153.727L152.648 27.3359H138.633ZM138.633 23.9609V22.2734H155.625L154.5 23.9609H138.633ZM150.516 56H148.43L169.43 22.2734V25.1328L150.516 56ZM146.344 56H144.281L165.328 22.2734H167.367L146.344 56ZM142.172 56H140.109L161.109 22.2734H163.195L142.172 56ZM138.023 56V52.5781L156.961 22.2734H159.047L138.023 56Z" fill="#FF00C7"/>
<path d="M140.94 71.08V73H132.66C132.66 66.84 138.6 66.98 138.6 62.58C138.6 61.42 138.1 60.44 136.84 60.44C135.14 60.44 134.86 61.96 134.86 63.4H132.7C132.7 60.58 133.86 58.84 136.88 58.84C139.78 58.84 140.88 60.56 140.88 62.62C140.88 67.32 136.28 67.62 135.2 71.08H140.94ZM144.449 66.06C144.449 70.18 144.849 71.68 146.409 71.68C147.969 71.68 148.369 70.18 148.369 66.06C148.369 61.94 147.969 60.44 146.409 60.44C144.849 60.44 144.449 61.94 144.449 66.06ZM142.169 66.06C142.169 60.56 143.689 58.84 146.409 58.84C149.129 58.84 150.649 60.56 150.649 66.06C150.649 71.56 149.129 73.28 146.409 73.28C143.689 73.28 142.169 71.56 142.169 66.06ZM160.159 71.08V73H151.879C151.879 66.84 157.819 66.98 157.819 62.58C157.819 61.42 157.319 60.44 156.059 60.44C154.359 60.44 154.079 61.96 154.079 63.4H151.919C151.919 60.58 153.079 58.84 156.099 58.84C158.999 58.84 160.099 60.56 160.099 62.62C160.099 67.32 155.499 67.62 154.419 71.08H160.159ZM161.248 69.82V67.86L166.148 58.84H168.468V68H170.008V69.82H168.468V73H166.308V69.82H161.248ZM166.308 68V62.16H166.268L163.088 68H166.308Z" fill="white"/>
</svg>
